#!OML:ASF F:\VICON\USERDATA\INSTALL\rory3\rory3.ASF
:FULLY-SPECIFIED
:DEGREES
10
root -1.1846100000000006 17.4493 -10.026399999999995 1.4836900000000024 7.084619999999989 1.0457800000000022
lfemur -31.701300000000014 4.803829999999998 -26.820099999999993
ltibia 44.34590000000003
lfoot -10.717600000000001 -17.071700000000003
ltoes 1.0686400000000233
rfemur 0.5989550000000019 0.533064 27.1415
rtibia 89.24759999999998
rfoot 17.393700000000027 -10.333099999999998
rtoes 16.997599999999984
lowerback 1.0 1.5351799999999989 -0.07500210000000151
upperback 0.42609100000000194 1.99176 -0.324074999999998
thorax -8.88893 0.9520879999999998 -0.7842299999999998
lowerneck -18.138800000000003 -6.53477 -1.66906
upperneck 14.538299999999998 -9.360920000000007 4.811850000000002
head 7.7758 -4.07832 0.7311520000000001
lclavicle 2.9817699999999925e-16 1.043620000000002e-14
lhumerus -62.87819999999999 -3.930990000000006 95.4013
lradius 109.63899999999998
lwrist 33.0661
lhand -28.5271 0.3590780000000038
lfingers 7.12502
lthumb -1.8949999999999996 30.330400000000008
rclavicle 2.9817699999999925e-16 1.043620000000002e-14
rhumerus -35.263899999999985 14.597899999999996 -96.1011
rradius 100.743
rwrist -23.0317
rhand -17.6955 1.0
rfingers 7.12502
rthumb 8.56417 9.845559999999999
11
root -1.18662 17.3617 -9.540899999999997 0.9722689999999958 6.7711399999999955 1.6561499999999971
lfemur -30.550600000000006 4.9992 -27.2988
ltibia 46.9261
lfoot -13.240599999999977 -15.211400000000006
ltoes 2.839290000000016
rfemur -1.506549999999983 -0.21766899999999234 25.6577
rtibia 93.66880000000003
rfoot 16.792900000000024 -10.359300000000001
rtoes 19.30439999999996
lowerback 1.0 1.70548 -0.9931399999999965
upperback 0.6894580000000006 2.0123300000000004 -0.5013869999999977
thorax -9.1487 0.9942219999999995 -0.4838240000000004
lowerneck -18.4097 -6.4640600000000035 -1.3833199999999992
upperneck 14.3691 -9.29882 4.666180000000001
head 7.74246 -4.046499999999999 0.641771
lclavicle 2.6835899999999956e-15 -2.2860199999999965e-15
lhumerus -60.61249999999998 -4.803309999999998 95.7598
lradius 109.845
lwrist 33.1719
lhand -28.5764 0.6539250000000099
lfingers 7.12502
lthumb -1.94264 30.6248
rclavicle 2.6835899999999956e-15 -2.2860199999999965e-15
rhumerus -35.94800000000002 13.777000000000001 -96.3172
rradius 98.27740000000001
rwrist -22.583899999999996
rhand -18.019 1.0
rfingers 7.12502
rthumb 8.25197 8.965770000000003
12
root -1.1876499999999997 17.241 -9.070519999999988 1.0082899999999961 7.039119999999988 2.404329999999996
lfemur -29.684099999999987 4.457290000000004 -27.997499999999995
ltibia 49.01949999999998
lfoot -15.819399999999979 -13.329599999999996
ltoes 5.971180000000015
rfemur -4.451209999999982 -1.6209300000000098 23.930499999999995
rtibia 98.1166
rfoot 16.446700000000018 -9.798860000000001
rtoes 20.945600000000027
lowerback 1.0 1.6805400000000006 -1.8680299999999987
upperback 0.7757529999999986 1.7735900000000004 -0.7250919999999973
thorax -9.2942 0.9117109999999997 -0.1792969999999992
lowerneck -18.5071 -6.460800000000001 -1.310090000000001
upperneck 14.2058 -9.316640000000001 4.739120000000001
head 7.70606 -4.046159999999999 0.651418
lclavicle -2.4748699999999977e-14 4.8702200000000115e-15
lhumerus -58.1586 -5.819290000000001 96.12260000000002
lradius 109.965
lwrist 33.499
lhand -28.4986 0.5888689999999968
lfingers 7.12502
lthumb -1.8674599999999988 30.560399999999998
rclavicle -2.4748699999999977e-14 4.8702200000000115e-15
rhumerus -36.931299999999986 12.498 -96.455
rradius 95.85950000000001
rwrist -21.2351
rhand -18.7281 1.0
rfingers 7.12502
rthumb 7.56764 7.969639999999996
13
root -1.1851799999999997 17.1258 -8.604009999999985 1.4138399999999955 7.282160000000005 3.174949999999998
lfemur -28.8457 4.09995 -28.922699999999985
ltibia 50.4867
lfoot -18.055700000000023 -10.8459
ltoes 3.2864600000000106
rfemur -7.985099999999992 -3.0839400000000015 22.123199999999997
rtibia 102.315
rfoot 15.971400000000017 -9.008509999999998
rtoes 23.55259999999999
lowerback 1.0 1.6051500000000003 -2.658960000000005
upperback 0.690235999999997 1.47861 -1.0104799999999976
thorax -9.46439 0.7996630000000002 0.030802000000000093
lowerneck -18.7607 -6.431350000000003 -1.3577399999999988
upperneck 14.2984 -9.32238 5.015639999999999
head 7.79811 -4.01582 0.7389559999999998
lclavicle 1.0274700000000006e-14 -2.9320700000000086e-15
lhumerus -55.6148 -6.90331 96.2886
lradius 109.97800000000001
lwrist 34.0544
lhand -27.7934 0.7095670000000034
lfingers 7.12502
lthumb -1.18641 30.685999999999996
rclavicle 1.0274700000000006e-14 -2.9320700000000086e-15
rhumerus -38.2682 11.145199999999999 -96.8035
rradius 93.3702
rwrist -20.2763
rhand -19.0684 1.0
rfingers 7.12502
rthumb 7.23917 10.160100000000002
